# xmcd
#
# Track frame offsets: 
#        150
#        12200
#        24912
#        37315
#        50817
#        64397
#        76697
#        90200
#        104795
#        117575
#        131287
#        146180
#        160755
#        175137
#        191097
#        207357
#        222797
#        238020
#        254885
#        272462
#        288850
#        306620
#        326740
#
# Disc length: 4604 seconds
#
# Revision: 0
# Processed by: cddbd v1.5.2PL0 Copyright (c) Steve Scherf et al.
# Submitted via: ExactAudioCopy v0.95b4
#
DISCID=5e11fa17
DTITLE=Diana Ross and The Supremes - No. 1 - Diana Ross and The Supremes 
DYEAR=2004
DGENRE=Soul
TTITLE0=Where Did Our Love Go (2003 Remix)
TTITLE1=Baby Remix (2003 Remix)
TTITLE2=Come See About Me (2003 Remix)
TTITLE3=Stop! In The Name Of Love (2003 Remix)
TTITLE4=Back In My Arms Again (2003 Remix)
TTITLE5=I Hear A Symphony (2003 Remix)
TTITLE6=You Can't Hurry Love (2003 Remix)
TTITLE7=You Keep Me Hanging On (2003 Remix)
TTITLE8=Love Is Here And Now You Are Gone (2003 Remix)
TTITLE9=The Happening (2003 Remix)
TTITLE10=Reflections (2003 Remix)
TTITLE11=Love Child (2003 Remix)
TTITLE12=I'm Gonna Make You Love Me (2003 Remix)
TTITLE13=Some Day We'll Be Together (2003 Remix)
TTITLE14=Ain't No Mountain High Enough (Single Version)
TTITLE15=Touch Me In The Morning
TTITLE16=Theme From Mahogany (Single Version)
TTITLE17=Love Hangover
TTITLE18=The Boss (Single Version)
TTITLE19=Upside Down (Single Version)
TTITLE20=I'm Coming Out (Single Version)
TTITLE21=Endless Love
TTITLE22=If We Hold On Together
EXTD=
EXTT0=
EXTT1=
EXTT2=
EXTT3=
EXTT4=
EXTT5=
EXTT6=
EXTT7=
EXTT8=
EXTT9=
EXTT10=
EXTT11=
EXTT12=
EXTT13=
EXTT14=
EXTT15=
EXTT16=
EXTT17=
EXTT18=
EXTT19=
EXTT20=
EXTT21=
EXTT22=
PLAYORDER=
